<svg width="40" height="40" viewBox="0 0 40 40" fill="none" xmlns="http://www.w3.org/2000/svg">
<g clip-path="url(#clip0)">
<path d="M11.7026 35.5185L12.6447 16.6827C12.7313 14.9466 13.4848 13.3188 14.7668 12.0993C16.0489 10.8801 17.7121 10.2084 19.4504 10.2084H27.5085C27.3166 8.00812 25.4654 6.27594 23.2159 6.27594H19.6808V5.87891C19.6808 2.63733 17.0438 0 13.8019 0C10.5606 0 7.92297 2.63733 7.92297 5.87891V6.27594H4.38782C2.01141 6.27594 0.078125 8.20953 0.078125 10.5859V35.69C0.078125 38.0667 2.01141 40 4.38782 40H13.186C12.1454 38.7488 11.6199 37.1747 11.7026 35.5185ZM10.2667 5.87891C10.2667 3.92975 11.8527 2.34375 13.8019 2.34375C15.7513 2.34375 17.337 3.92975 17.337 5.87891V6.27594H10.2667V5.87891Z" fill="#1B2638"/>
<path d="M39.92 35.6357L38.978 16.7997C38.8611 14.4575 36.8579 12.5522 34.5129 12.5522H19.4504C17.1054 12.5522 15.1022 14.4578 14.9854 16.7997L14.0436 35.6357C13.9856 36.793 14.3878 37.8867 15.1761 38.7153C15.9644 39.5438 17.0364 40.0001 18.1952 40.0001H35.7681C36.9269 40.0001 37.9993 39.5438 38.7872 38.7153C39.5755 37.8867 39.9777 36.793 39.92 35.6357ZM32.8607 21.569C32.8607 24.8105 30.2234 27.4479 26.9818 27.4479C23.7399 27.4479 21.1029 24.8105 21.1029 21.569V20.0001C21.1029 19.3528 21.6275 18.8282 22.2748 18.8282C22.9218 18.8282 23.4467 19.3528 23.4467 20.0001V21.569C23.4467 23.5184 25.0324 25.1041 26.9818 25.1041C28.931 25.1041 30.517 23.5184 30.517 21.569V20.0001C30.517 19.3528 31.0416 18.8282 31.6888 18.8282C32.3358 18.8282 32.8607 19.3528 32.8607 20.0001V21.569Z" fill="#1B2638"/>
</g>
<defs>
<clipPath id="clip0">
<rect width="40" height="40" fill="white"/>
</clipPath>
</defs>
</svg>
