<svg width="37" height="37" viewBox="0 0 37 37" fill="none" xmlns="http://www.w3.org/2000/svg">
<path d="M24.1437 31.3968L20.7103 27.9634C20.1414 27.3945 19.2191 27.3945 18.6502 27.9634L16.5901 30.0235C12.3716 28.0253 8.9748 24.6284 6.97658 20.4099L9.03666 18.3498C9.60553 17.781 9.60553 16.8586 9.03666 16.2898L5.60324 12.8563C5.03437 12.2875 4.11204 12.2875 3.54317 12.8563L0.796423 15.6031C-1.47908 17.8786 1.2879 24.3348 6.97658 30.0235C12.6653 35.7122 19.1215 38.4791 21.397 36.2036L24.1437 33.4569C24.7126 32.888 24.7126 31.9657 24.1437 31.3968Z" fill="#94C825"/>
<path d="M33.6582 2.80087C31.551 0.994736 28.7598 0 25.7988 0C22.8378 0 20.0466 0.994736 17.9394 2.80087C15.7845 4.64805 14.5977 7.11802 14.5977 9.75586C14.5977 12.3937 15.7845 14.8637 17.9394 16.7108C18.3256 17.0418 18.7349 17.3453 19.1639 17.6207C18.3718 18.8141 17.4458 19.9111 16.4043 20.8869C18.6761 20.699 20.8302 20.097 22.7922 19.1581C23.7595 19.391 24.7688 19.5117 25.7988 19.5117C28.7598 19.5117 31.551 18.517 33.6582 16.7108C35.8132 14.8637 37 12.3937 37 9.75586C37 7.11802 35.8132 4.64805 33.6582 2.80087ZM20.7402 11.2012C19.942 11.2012 19.2949 10.5541 19.2949 9.75586C19.2949 8.95761 19.942 8.31055 20.7402 8.31055C21.5385 8.31055 22.1855 8.95761 22.1855 9.75586C22.1855 10.5541 21.5385 11.2012 20.7402 11.2012ZM25.7988 11.2012C25.0006 11.2012 24.3535 10.5541 24.3535 9.75586C24.3535 8.95761 25.0006 8.31055 25.7988 8.31055C26.5971 8.31055 27.2441 8.95761 27.2441 9.75586C27.2441 10.5541 26.5971 11.2012 25.7988 11.2012ZM30.8574 11.2012C30.0592 11.2012 29.4121 10.5541 29.4121 9.75586C29.4121 8.95761 30.0592 8.31055 30.8574 8.31055C31.6557 8.31055 32.3027 8.95761 32.3027 9.75586C32.3027 10.5541 31.6557 11.2012 30.8574 11.2012Z" fill="#94C825"/>
</svg>
