<svg width="37" height="37" viewBox="0 0 37 37" fill="none" xmlns="http://www.w3.org/2000/svg">
<path d="M18.4841 22.1968C19.0826 22.1968 19.5698 21.7096 19.5698 21.1111C19.5698 20.5124 19.0826 20.0251 18.4841 20.0251C17.8854 20.0251 17.3984 20.5124 17.3984 21.1111C17.3984 21.7096 17.8854 22.1968 18.4841 22.1968Z" fill="#94C825"/>
<path d="M21.5512 22.1951C21.1035 23.4575 19.8978 24.3647 18.4838 24.3647C16.6896 24.3647 15.2302 22.905 15.2302 21.1111C15.2302 19.6968 16.1372 18.4912 17.3999 18.0437V11.7888C12.7337 12.328 9.09863 16.3026 9.09863 21.1111C9.09863 26.286 13.309 30.496 18.4838 30.496C23.2921 30.496 27.2667 26.861 27.8058 22.1951H21.5512Z" fill="#94C825"/>
<path d="M32.021 9.10688L33.5558 10.6417L35.0886 9.10886L30.4859 4.50616L28.9531 6.03898L30.4879 7.57406L28.9263 9.13567C26.9514 7.40864 24.6163 6.21682 22.0992 5.6339V2.16797H24.2697V0H12.6979V2.16797H14.8684V5.6339C12.3512 6.21682 10.0161 7.40864 8.04124 9.13567L6.47963 7.57406L8.01443 6.03926L6.48161 4.50616L1.87891 9.10886L3.41201 10.6417L4.94681 9.10688L6.50842 10.6685C3.97743 13.5625 2.59479 17.2303 2.59479 21.1112C2.59479 25.3551 4.24758 29.3452 7.24858 32.3462C10.2499 35.3472 14.2397 37 18.4839 37C22.7278 37 26.718 35.3472 29.719 32.3462C32.72 29.3452 34.3727 25.3551 34.3727 21.1112C34.3727 17.2303 32.9901 13.5625 30.4591 10.6685L32.021 9.10688ZM18.4839 32.6641C12.1135 32.6641 6.93073 27.4813 6.93073 21.1112C6.93073 14.7408 12.1135 9.55798 18.4839 9.55798C24.854 9.55798 30.0368 14.7408 30.0368 21.1112C30.0368 27.4813 24.854 32.6641 18.4839 32.6641Z" fill="#94C825"/>
</svg>
