<svg width="7" height="11" viewBox="0 0 7 11" fill="none" xmlns="http://www.w3.org/2000/svg">
<path d="M2.42703 5.38319L6.13238 1.67768C6.2344 1.57589 6.29053 1.4398 6.29053 1.29469C6.29053 1.1495 6.2344 1.01349 6.13238 0.911548L5.80769 0.587026C5.70583 0.484918 5.56966 0.428711 5.42455 0.428711C5.27944 0.428711 5.14343 0.484918 5.04148 0.587026L0.629675 4.99875C0.527326 5.10102 0.471279 5.23768 0.471682 5.38295C0.471279 5.52886 0.527245 5.66535 0.629675 5.7677L5.03738 10.1752C5.13932 10.2773 5.27533 10.3335 5.42052 10.3335C5.56563 10.3335 5.70164 10.2773 5.80367 10.1752L6.12827 9.85064C6.33949 9.63942 6.33949 9.29557 6.12827 9.08443L2.42703 5.38319Z" fill="white"/>
<path d="M2.42703 5.38319L6.13238 1.67768C6.2344 1.57589 6.29053 1.4398 6.29053 1.29469C6.29053 1.1495 6.2344 1.01349 6.13238 0.911548L5.80769 0.587026C5.70583 0.484918 5.56966 0.428711 5.42455 0.428711C5.27944 0.428711 5.14343 0.484918 5.04148 0.587026L0.629675 4.99875C0.527326 5.10102 0.471279 5.23768 0.471682 5.38295C0.471279 5.52886 0.527245 5.66535 0.629675 5.7677L5.03738 10.1752C5.13932 10.2773 5.27533 10.3335 5.42052 10.3335C5.56563 10.3335 5.70164 10.2773 5.80367 10.1752L6.12827 9.85064C6.33949 9.63942 6.33949 9.29557 6.12827 9.08443L2.42703 5.38319Z" fill="white"/>
<path d="M2.42703 5.38319L6.13238 1.67768C6.2344 1.57589 6.29053 1.4398 6.29053 1.29469C6.29053 1.1495 6.2344 1.01349 6.13238 0.911548L5.80769 0.587026C5.70583 0.484918 5.56966 0.428711 5.42455 0.428711C5.27944 0.428711 5.14343 0.484918 5.04148 0.587026L0.629675 4.99875C0.527326 5.10102 0.471279 5.23768 0.471682 5.38295C0.471279 5.52886 0.527245 5.66535 0.629675 5.7677L5.03738 10.1752C5.13932 10.2773 5.27533 10.3335 5.42052 10.3335C5.56563 10.3335 5.70164 10.2773 5.80367 10.1752L6.12827 9.85064C6.33949 9.63942 6.33949 9.29557 6.12827 9.08443L2.42703 5.38319Z" fill="white"/>
</svg>
