<svg width="170" height="118" viewBox="0 0 170 118" fill="none" xmlns="http://www.w3.org/2000/svg">
<path d="M106.879 34.0576L116.029 34.0576L77.3866 1.20382L72.8115 5.22764L106.879 34.0576Z" fill="#1F0D6B"/>
<path d="M11.4819 70.4683L2.33169 70.4683L77.3848 1.20386L81.9599 5.22767L11.4819 70.4683Z" fill="#1F0D6B"/>
<path d="M99.4248 24.015L105.468 30.8859L105.468 3.92505L99.4248 3.92505L99.4248 24.015Z" fill="#1F0D6B"/>
<path d="M103.793 9.96801L103.71 3.92505H88.7139L88.7139 9.96802L103.793 9.96801Z" fill="#1F0D6B"/>
<path d="M87.9356 15.2473L93.9785 22.1182L93.9785 3.92505L87.9356 3.92518L87.9356 15.2473Z" fill="#1F0D6B"/>
<rect x="93.9814" y="9.97144" width="5.44206" height="23.2799" fill="white"/>
<rect x="22" y="104.388" width="114.607" height="13.53" rx="6.765" fill="#FF000F"/>
<path d="M36.2799 110.335H36.2356L33.8175 113.938H32.7432V108.611H33.8544V112.218H33.8987L36.3169 108.611H37.3912V113.938H36.2799V110.335Z" fill="white"/>
<path d="M42.288 113.938V111.693H39.8883V113.938H38.7734V108.611H39.8883V110.774H42.288V108.611H43.403V113.938H42.288Z" fill="white"/>
<path d="M46.1143 113.938V109.53H44.5563V108.611H48.7908V109.53H47.2292V113.938H46.1143Z" fill="white"/>
<path d="M53.4477 113.938H49.9183V108.611H53.4477V109.53H51.0333V110.815H53.3111V111.671H51.0333V113.015H53.4477V113.938Z" fill="white"/>
<path d="M56.9712 108.611C57.5201 108.611 57.9643 108.778 58.304 109.113C58.6461 109.448 58.8171 109.888 58.8171 110.434C58.8171 110.978 58.6412 111.419 58.2892 111.756C57.9372 112.091 57.4795 112.258 56.9158 112.258H55.8637V113.938H54.7487V108.611H56.9712ZM55.8637 111.387H56.6722C56.9921 111.387 57.2407 111.305 57.4179 111.14C57.5951 110.975 57.6837 110.741 57.6837 110.438C57.6837 110.135 57.5951 109.902 57.4179 109.737C57.2432 109.574 56.9958 109.493 56.6759 109.493H55.8637V111.387Z" fill="white"/>
<path d="M63.4777 113.938V111.693H61.078V113.938H59.9631V108.611H61.078V110.774H63.4777V108.611H64.5926V113.938H63.4777Z" fill="white"/>
<path d="M69.5412 113.938H66.0118V108.611H69.5412V109.53H67.1267V110.815H69.4046V111.671H67.1267V113.015H69.5412V113.938Z" fill="white"/>
<path d="M72.1343 113.938V109.53H70.5764V108.611H74.8109V109.53H73.2493V113.938H72.1343Z" fill="white"/>
<path d="M79.9212 112.273V111.332H82.3467V112.273H79.9212Z" fill="white"/>
<path d="M93.3122 113.938H92.3191V110.342H92.2895L90.8423 113.886H90.1409L88.6937 110.342H88.6642V113.938H87.6711V108.611H88.9632L90.4769 112.387H90.5064L92.02 108.611H93.3122V113.938Z" fill="white"/>
<path d="M97.814 112.646H95.9422L95.5361 113.938H94.3917L96.2413 108.611H97.5519L99.4052 113.938H98.2201L97.814 112.646ZM96.1822 111.812H97.574L96.891 109.63H96.8652L96.1822 111.812Z" fill="white"/>
<path d="M100.444 113.938V108.611H103.877V109.534H101.563V113.938H100.444Z" fill="white"/>
<path d="M107.438 112.646H105.566L105.16 113.938H104.016L105.865 108.611H107.176L109.029 113.938H107.844L107.438 112.646ZM105.806 111.812H107.198L106.515 109.63H106.489L105.806 111.812Z" fill="white"/>
<path d="M111.153 110.782H111.858C112.124 110.782 112.341 110.714 112.508 110.578C112.673 110.443 112.756 110.266 112.756 110.047C112.756 109.828 112.677 109.656 112.519 109.53C112.362 109.404 112.146 109.342 111.873 109.342C111.598 109.342 111.375 109.411 111.205 109.548C111.035 109.686 110.943 109.872 110.928 110.106H109.898C109.915 109.604 110.105 109.206 110.467 108.913C110.826 108.621 111.305 108.474 111.903 108.474C112.474 108.474 112.935 108.607 113.287 108.873C113.642 109.141 113.819 109.489 113.819 109.918C113.819 110.218 113.727 110.48 113.542 110.704C113.357 110.928 113.115 111.072 112.815 111.136V111.165C113.174 111.205 113.46 111.343 113.671 111.579C113.883 111.813 113.989 112.108 113.989 112.465C113.989 112.933 113.791 113.318 113.394 113.621C112.996 113.923 112.49 114.075 111.877 114.075C111.267 114.075 110.771 113.925 110.389 113.624C110.008 113.322 109.805 112.922 109.78 112.424H110.847C110.864 112.653 110.966 112.835 111.153 112.971C111.34 113.106 111.585 113.174 111.888 113.174C112.174 113.174 112.405 113.101 112.582 112.956C112.757 112.813 112.844 112.625 112.844 112.391C112.844 112.16 112.758 111.978 112.586 111.845C112.413 111.714 112.175 111.649 111.87 111.649H111.153V110.782Z" fill="white"/>
<path d="M118.694 110.335H118.649L116.231 113.938H115.157V108.611H116.268V112.218H116.312L118.73 108.611H119.805V113.938H118.694V110.335Z" fill="white"/>
<path d="M124.702 113.938V111.693H122.302V113.938H121.187V108.611H122.302V110.774H124.702V108.611H125.817V113.938H124.702Z" fill="white"/>
<path d="M48.9631 85.0226H51.4989V93.5862H47.6106V88.6927H34.0864V93.5862H30.1982V85.0226H32.3283C33.7483 83.2102 34.4584 80.4576 34.4584 76.7648V64.9048H48.9631V85.0226ZM36.5884 85.0226H45.0749V68.5749H38.3466V76.8327C38.3466 80.3896 37.7605 83.1195 36.5884 85.0226Z" fill="black"/>
<path d="M66.7746 78.5659C68.7131 79.4721 69.6823 81.0239 69.6823 83.2215C69.6823 84.8074 69.1526 86.1214 68.0932 87.1635C67.0564 88.183 65.5574 88.6927 63.5964 88.6927H54.6366V71.7013H62.0749C63.6978 71.7013 65.0052 72.1431 65.997 73.0267C66.9887 73.9102 67.4846 75.009 67.4846 76.323C67.4846 77.0933 67.2479 77.8409 66.7746 78.5659ZM58.1191 74.7598V77.9202H63.664C63.8894 77.535 64.0021 77.1612 64.0021 76.7988C64.0021 76.1418 63.7767 75.632 63.3259 75.2695C62.8977 74.907 62.3341 74.7371 61.6354 74.7598H58.1191ZM63.3259 85.5663C64.205 85.5663 64.8812 85.3511 65.3546 84.9206C65.8504 84.4902 66.0984 83.9012 66.0984 83.1535C66.0984 82.4059 65.8617 81.8282 65.3884 81.4204C64.915 81.0126 64.2275 80.8087 63.3259 80.8087H58.1191V85.5663H63.3259Z" fill="black"/>
<path d="M75.2404 81.7602C75.5109 83.1196 76.1082 84.1617 77.0324 84.8867C77.9791 85.6116 79.1174 85.9741 80.4472 85.9741C81.3489 85.9741 82.1603 85.7815 82.8816 85.3964C83.6029 85.0113 84.1213 84.5128 84.4369 83.9012L88.156 83.8672C87.6376 85.4983 86.6796 86.7897 85.2821 87.7412C83.9072 88.6701 82.273 89.1345 80.3796 89.1345C77.7199 89.1345 75.5673 88.2963 73.9218 86.6198C72.2764 84.9206 71.4536 82.7797 71.4536 80.197C71.4536 77.637 72.2764 75.5074 73.9218 73.8083C75.5673 72.1091 77.6973 71.2596 80.312 71.2596C82.7914 71.2596 84.8088 72.1318 86.3641 73.8762C87.9194 75.598 88.697 77.7163 88.697 80.231C88.697 80.6162 88.6519 81.1259 88.5618 81.7602H75.2404ZM75.2066 78.7358H85.0117C84.7863 77.3765 84.234 76.3457 83.3549 75.6433C82.4984 74.941 81.4841 74.5899 80.312 74.5899C78.9596 74.5899 77.8326 74.9637 76.9309 75.7113C76.0293 76.4589 75.4546 77.4671 75.2066 78.7358Z" fill="black"/>
<path d="M101.383 71.2596C103.705 71.2596 105.689 72.1205 107.334 73.8423C108.979 75.564 109.802 77.6823 109.802 80.197C109.802 82.6891 108.979 84.8074 107.334 86.5518C105.689 88.2736 103.705 89.1345 101.383 89.1345C98.8137 89.1345 96.8415 88.1717 95.4665 86.246V95.4893H91.815V71.7013H95.4665V74.1141C96.8415 72.2111 98.8137 71.2596 101.383 71.2596ZM100.809 85.6343C102.341 85.6343 103.615 85.1245 104.629 84.105C105.643 83.0629 106.151 81.7602 106.151 80.197C106.151 78.6338 105.643 77.3425 104.629 76.323C103.615 75.2809 102.341 74.7598 100.809 74.7598C99.3434 74.7598 98.1037 75.2355 97.0894 76.1871C96.0976 77.1159 95.5567 78.3053 95.4665 79.7552V80.6388C95.5567 82.0887 96.0976 83.2895 97.0894 84.241C98.1037 85.1698 99.3434 85.6343 100.809 85.6343Z" fill="black"/>
<path d="M124.337 71.7013H127.143V88.6927H123.559V77.8182L115.918 88.6927H113.112V71.7013H116.696V82.5758L124.337 71.7013Z" fill="black"/>
<path d="M80.4637 38.6143V62.4022H76.5755V42.3524H67.6157V62.4022H63.7275V38.6143H80.4637Z" fill="black"/>
<path d="M91.478 44.969C93.439 44.969 95.0507 45.5467 96.3129 46.7022C97.5752 47.8576 98.2063 49.4661 98.2063 51.5277V62.4022H94.6224V60.805C93.5405 62.1643 91.9401 62.844 89.8213 62.844C88.1984 62.844 86.8235 62.3795 85.6964 61.4507C84.5694 60.4992 84.0059 59.1625 84.0059 57.4407C84.0059 55.7189 84.5694 54.3936 85.6964 53.4647C86.8235 52.5359 88.1984 52.0714 89.8213 52.0714C91.8725 52.0714 93.4728 52.6491 94.6224 53.8046V51.6976C94.6224 50.5649 94.3407 49.7379 93.7771 49.2169C93.2136 48.6732 92.4473 48.4013 91.478 48.4013C90.5539 48.4013 89.7988 48.6392 89.2127 49.1149C88.6267 49.568 88.3337 50.2024 88.3337 51.018H84.7497C84.7497 49.1829 85.3809 47.7216 86.6431 46.6342C87.9279 45.5241 89.5396 44.969 91.478 44.969ZM91.0047 59.9894C92.0866 59.9894 92.9544 59.7515 93.6081 59.2758C94.2843 58.8 94.6224 58.1883 94.6224 57.4407C94.6224 56.6704 94.2843 56.0587 93.6081 55.6056C92.9544 55.1525 92.0866 54.926 91.0047 54.926C89.9002 54.926 89.0662 55.1525 88.5027 55.6056C87.9392 56.0587 87.6574 56.6704 87.6574 57.4407C87.6574 58.211 87.9392 58.834 88.5027 59.3098C89.0662 59.7629 89.9002 59.9894 91.0047 59.9894Z" fill="black"/>
<path d="M111.591 44.969C113.913 44.969 115.897 45.8299 117.542 47.5517C119.187 49.2735 120.01 51.3918 120.01 53.9065C120.01 56.3986 119.187 58.5168 117.542 60.2613C115.897 61.9831 113.913 62.844 111.591 62.844C109.022 62.844 107.049 61.8811 105.674 59.9554V69.1987H102.023V45.4108H105.674V47.8236C107.049 45.9206 109.022 44.969 111.591 44.969ZM111.017 59.3437C112.549 59.3437 113.823 58.834 114.837 57.8145C115.851 56.7724 116.359 55.4697 116.359 53.9065C116.359 52.3433 115.851 51.052 114.837 50.0325C113.823 48.9903 112.549 48.4693 111.017 48.4693C109.551 48.4693 108.312 48.945 107.297 49.8965C106.306 50.8254 105.765 52.0148 105.674 53.4647V54.3483C105.765 55.7982 106.306 56.9989 107.297 57.9505C108.312 58.8793 109.551 59.3437 111.017 59.3437Z" fill="black"/>
<path d="M138.095 62.4022H133.733L126.971 54.5522V62.4022H123.32V45.4108H126.971V52.921L133.395 45.4108H137.757L130.521 53.7366L138.095 62.4022Z" fill="black"/>
<path d="M142.107 55.4697C142.378 56.829 142.975 57.8712 143.899 58.5961C144.846 59.3211 145.984 59.6836 147.314 59.6836C148.216 59.6836 149.027 59.491 149.749 59.1059C150.47 58.7207 150.988 58.2223 151.304 57.6106L155.023 57.5766C154.505 59.2078 153.547 60.4992 152.149 61.4507C150.774 62.3795 149.14 62.844 147.247 62.844C144.587 62.844 142.434 62.0057 140.789 60.3292C139.143 58.6301 138.321 56.4892 138.321 53.9065C138.321 51.3465 139.143 49.2169 140.789 47.5177C142.434 45.8186 144.564 44.969 147.179 44.969C149.658 44.969 151.676 45.8413 153.231 47.5857C154.786 49.3075 155.564 51.4258 155.564 53.9405C155.564 54.3256 155.519 54.8354 155.429 55.4697H142.107ZM142.074 52.4452H151.879C151.653 51.0859 151.101 50.0551 150.222 49.3528C149.365 48.6505 148.351 48.2993 147.179 48.2993C145.827 48.2993 144.7 48.6732 143.798 49.4208C142.896 50.1684 142.322 51.1766 142.074 52.4452Z" fill="black"/>
<path d="M169.651 45.4108V48.8771H164.816V62.4022H161.164V48.8771H156.296V45.4108H169.651Z" fill="black"/>
<path d="M19.2163 76.0037H20.7236V82.8551H18.723V79.2923L16.2017 82.8551H14.6943V76.0037H16.695V79.5664L19.2163 76.0037Z" fill="black"/>
</svg>
