<svg width="38" height="38" viewBox="0 0 38 38" fill="none" xmlns="http://www.w3.org/2000/svg">
<path d="M32.7447 22.8513H26.3961C29.0575 18.6309 30.4053 14.8011 30.4053 11.4453C30.4053 5.13443 25.2724 0 18.9629 0C12.6534 0 7.52045 5.13443 7.52045 11.4453C7.52045 14.8011 8.86827 18.6312 11.5297 22.8513H5.18111L1.11328 38H36.8125L32.7447 22.8513ZM18.9629 6.12131C22.2361 6.12131 24.8989 8.78477 24.8989 12.0588C24.8989 15.3326 22.2361 17.9963 18.9629 17.9963C15.6897 17.9963 13.0268 15.3326 13.0268 12.0588C13.0268 8.78477 15.6897 6.12131 18.9629 6.12131ZM6.88814 25.0778H13.026C14.9455 27.7581 16.8094 29.86 18.9629 31.9883C21.0573 29.918 22.8672 27.9161 24.9001 25.0778H31.0379L33.9099 35.7734H4.01593L6.88814 25.0778Z" fill="#94C825"/>
</svg>
