<svg width="45" height="47" viewBox="0 0 45 47" fill="none" xmlns="http://www.w3.org/2000/svg">
<path d="M36.7066 12.8895C39.0242 12.8895 40.9073 11.0064 40.9073 8.68876C40.9073 6.37112 39.0242 4.48804 36.7066 4.48804C34.3889 4.48804 32.5059 6.37112 32.5059 8.68876C32.5059 11.0064 34.3889 12.8895 36.7066 12.8895ZM36.7066 5.93656C38.2227 5.93656 39.4588 7.17264 39.4588 8.68876C39.4588 10.2049 38.2227 11.441 36.7066 11.441C35.1905 11.441 33.9544 10.2049 33.9544 8.68876C33.9544 7.17264 35.1905 5.93656 36.7066 5.93656Z" fill="#1B2638"/>
<path d="M25.5711 13.5077L19.6128 18.8962L18.9465 18.1526C18.6761 17.8532 18.2223 17.8339 17.9229 18.1043C17.6235 18.3747 17.6042 18.8286 17.8746 19.1279L18.5409 19.8715L17.6139 20.7117L16.9475 19.9681C16.6772 19.6687 16.2233 19.6494 15.9239 19.9198C15.6246 20.1902 15.6052 20.6441 15.8756 20.9434L16.542 21.687L13.7415 24.2074C13.4421 24.4778 13.4228 24.9317 13.6932 25.2311C13.9636 25.5304 14.4175 25.5497 14.7168 25.2793L17.5173 22.7589L20.5978 26.1678C20.8682 26.4671 21.3221 26.4865 21.6215 26.2161C21.9208 25.9457 21.9401 25.4918 21.6697 25.1924L18.5892 21.7836L19.5163 20.9434L21.1386 22.7396C22.9348 24.7193 26.0733 24.8158 28.1495 22.9424C30.2257 21.069 30.4768 17.9788 28.7289 15.9122C28.7192 15.9025 28.7192 15.9026 28.7096 15.8929L26.5947 13.5559C26.3243 13.2566 25.8705 13.2373 25.5711 13.5077ZM27.628 16.8586C28.8641 18.3264 28.6613 20.5185 27.1741 21.8608C25.6966 23.1935 23.4659 23.1548 22.2105 21.7643L20.5882 19.9681L26.0153 15.0721L27.628 16.8586Z" fill="#1B2638"/>
<path d="M44.1706 0.480469H26.1703C25.9965 0.480469 25.8323 0.538409 25.6971 0.654291L0.724542 22.1504C0.570033 22.2759 0.483121 22.4691 0.473464 22.6719C0.463807 22.8747 0.541062 23.0678 0.685915 23.2127L18.6863 40.8943C18.8311 41.0295 19.0146 41.0971 19.1981 41.0971C19.3622 41.0971 19.5361 41.0392 19.6712 40.933L44.6438 19.5044C44.7983 19.3692 44.8949 19.1664 44.8949 18.954V1.20473C44.8949 0.808801 44.5666 0.480469 44.1706 0.480469ZM43.456 18.616L19.2367 39.3879L2.26964 22.7298L26.4503 1.91934H43.456V18.616Z" fill="#1B2638"/>
<path d="M43.6981 23.6473L19.2374 44.6316L1.71022 27.1237C1.43017 26.8437 0.966647 26.8437 0.686599 27.1237C0.40655 27.4038 0.40655 27.8673 0.686599 28.1474L18.6869 46.1284C18.8318 46.2732 19.0153 46.3408 19.1987 46.3408C19.3629 46.3408 19.5367 46.2829 19.6719 46.1767L44.6445 24.7482C44.9439 24.4874 44.9825 24.0239 44.7218 23.7245C44.461 23.4252 43.9975 23.3866 43.6981 23.6473Z" fill="#1B2638"/>
</svg>
