<svg width="25" height="50" viewBox="0 0 25 50" fill="none" xmlns="http://www.w3.org/2000/svg">
<path d="M12.6462 31.1527L12.1707 29.6892L11.6952 31.1527L10.9539 33.4341H8.5552H7.01636L8.26131 34.3386L10.2019 35.7485L9.46068 38.0299L8.98515 39.4934L10.2301 38.5889L12.1707 37.1789L14.1113 38.5889L15.3563 39.4934L14.8808 38.0299L14.1395 35.7485L16.0801 34.3386L17.3251 33.4341H15.7862H13.3875L12.6462 31.1527Z" stroke="#1B2638"/>
<path d="M24.2007 31.5695C24.2042 27.3317 24.5175 24.3189 23.0243 21.9232C21.4075 19.4071 19.5567 19.6411 12.497 18.1858C9.52708 17.5462 6.82012 15.928 6.88046 12.8843C7.0982 6.24179 17.3711 6.21455 17.4588 13.1015C17.6195 17.2207 24.2065 17.6483 24.2065 12.5703C24.1652 6.07588 18.8495 0.929796 12.1682 0.890747C6.04064 0.926561 1.02894 5.25494 0.226423 11.0888C0.0264363 12.6975 0.133201 47.0267 0.203776 47.3233C0.466288 48.2221 1.14255 48.8467 2.1339 49.0182C2.39144 49.05 21.8536 49.081 22.3289 49.0005C22.969 48.8603 23.4334 48.561 23.8145 48.0346C24.3124 47.2688 24.1966 48.2413 24.2007 31.5695ZM22.6517 46.8526C22.6248 47.0646 22.5367 47.2262 22.3684 47.3667C22.0172 47.6321 2.88983 47.5494 2.4499 47.5382C1.33207 47.4565 1.68028 48.4881 1.68028 12.575C1.71857 6.66064 6.69085 2.36213 12.1682 2.39554C19.1289 2.43797 23.1992 8.53749 22.6415 13.2431C22.4181 14.7952 20.4194 15.3437 19.3972 14.1106C18.9802 13.5822 19.0278 13.2569 18.9981 12.6554C18.5597 5.52302 8.35116 3.95352 5.74329 10.7349C4.56203 13.9294 5.79475 17.2238 9.85024 18.9449C13.1226 20.3047 19.1273 20.4879 20.8125 21.735C21.8651 22.5384 22.3064 23.7745 22.5143 25.0821C22.7084 26.3579 22.7066 46.1358 22.6517 46.8526Z" fill="black"/>
</svg>
