<svg width="7" height="11" viewBox="0 0 7 11" fill="none" xmlns="http://www.w3.org/2000/svg">
<path d="M4.33567 5.37902L0.630319 9.08453C0.528292 9.18631 0.472165 9.3224 0.472165 9.46751C0.472165 9.6127 0.528292 9.74871 0.630319 9.85066L0.955002 10.1752C1.05687 10.2773 1.19304 10.3335 1.33815 10.3335C1.48326 10.3335 1.61927 10.2773 1.72121 10.1752L6.13302 5.76345C6.23537 5.66119 6.29142 5.52453 6.29101 5.37926C6.29142 5.23335 6.23545 5.09686 6.13302 4.99451L1.72532 0.587047C1.62337 0.48494 1.48736 0.428731 1.34217 0.428731C1.19707 0.428731 1.06106 0.484939 0.959029 0.587047L0.634426 0.911569C0.423205 1.12279 0.423205 1.46664 0.634426 1.67778L4.33567 5.37902Z" fill="white"/>
<path d="M4.33567 5.37902L0.630319 9.08453C0.528292 9.18631 0.472165 9.3224 0.472165 9.46751C0.472165 9.6127 0.528292 9.74871 0.630319 9.85066L0.955002 10.1752C1.05687 10.2773 1.19304 10.3335 1.33815 10.3335C1.48326 10.3335 1.61927 10.2773 1.72121 10.1752L6.13302 5.76345C6.23537 5.66119 6.29142 5.52453 6.29101 5.37926C6.29142 5.23335 6.23545 5.09686 6.13302 4.99451L1.72532 0.587047C1.62337 0.48494 1.48736 0.428731 1.34217 0.428731C1.19707 0.428731 1.06106 0.484939 0.959029 0.587047L0.634426 0.911569C0.423205 1.12279 0.423205 1.46664 0.634426 1.67778L4.33567 5.37902Z" fill="white"/>
<path d="M4.33567 5.37902L0.630319 9.08453C0.528292 9.18631 0.472165 9.3224 0.472165 9.46751C0.472165 9.6127 0.528292 9.74871 0.630319 9.85066L0.955002 10.1752C1.05687 10.2773 1.19304 10.3335 1.33815 10.3335C1.48326 10.3335 1.61927 10.2773 1.72121 10.1752L6.13302 5.76345C6.23537 5.66119 6.29142 5.52453 6.29101 5.37926C6.29142 5.23335 6.23545 5.09686 6.13302 4.99451L1.72532 0.587047C1.62337 0.48494 1.48736 0.428731 1.34217 0.428731C1.19707 0.428731 1.06106 0.484939 0.959029 0.587047L0.634426 0.911569C0.423205 1.12279 0.423205 1.46664 0.634426 1.67778L4.33567 5.37902Z" fill="white"/>
</svg>
