<svg width="20" height="20" viewBox="0 0 20 20" fill="none" xmlns="http://www.w3.org/2000/svg">
<path d="M15.651 13.984C16.8099 12.4703 17.4389 10.6174 17.441 8.711C17.442 3.902 13.536 0 8.722 0C3.908 0 0 3.902 0 8.71C0 13.52 3.907 17.422 8.72 17.422C10.6284 17.4199 12.4834 16.7914 14 15.633L18.023 19.652C18.256 19.884 18.558 20 18.837 20C19.117 20 19.442 19.884 19.651 19.652C19.7614 19.5448 19.8491 19.4166 19.909 19.2749C19.969 19.1331 19.9998 18.9809 19.9998 18.827C19.9998 18.6731 19.969 18.5209 19.909 18.3791C19.8491 18.2374 19.7614 18.1092 19.651 18.002L15.651 13.984ZM8.721 15.099C5.186 15.099 2.326 12.219 2.326 8.711C2.326 5.203 5.186 2.323 8.721 2.323C9.56047 2.32208 10.3919 2.48663 11.1677 2.80725C11.9436 3.12786 12.6486 3.59825 13.2425 4.19152C13.8364 4.7848 14.3076 5.48932 14.6291 6.2648C14.9505 7.04029 15.116 7.87153 15.116 8.711C15.116 12.241 12.233 15.099 8.721 15.099Z" fill="white"/>
</svg>
