<svg width="47" height="38" viewBox="0 0 47 38" fill="none" xmlns="http://www.w3.org/2000/svg">
<path d="M45.7027 0.497192H37.0717C36.675 0.497192 36.3538 0.818429 36.3538 1.21519V10.21H28.165C27.7683 10.21 27.4471 10.5313 27.4471 10.928V18.3372H19.0806C18.6838 18.3372 18.3626 18.6584 18.3626 19.0552V27.626H10.3481C9.95139 27.626 9.63015 27.9472 9.63015 28.344V36.3256H1.27555C0.878783 36.3256 0.557617 36.6468 0.557617 37.0436C0.557617 37.4403 0.878783 37.7615 1.27555 37.7615H10.3481C10.7449 37.7615 11.0661 37.4403 11.0661 37.0436V29.0619H19.0806C19.4774 29.0619 19.7985 28.7408 19.7985 28.344V19.7731H28.165C28.5618 19.7731 28.883 19.452 28.883 19.0552V11.646H37.0717C37.4685 11.646 37.7897 11.3248 37.7897 10.928V1.93312H45.7027C46.0995 1.93312 46.4207 1.61196 46.4207 1.21519C46.4207 0.818429 46.0995 0.497192 45.7027 0.497192Z" fill="#1B2638"/>
<path d="M6.2917 13.3725C6.46876 13.3725 6.64582 13.3046 6.78019 13.1703L17.0136 2.93674V9.81486C17.0136 10.2256 17.346 10.558 17.7568 10.558C18.1676 10.558 18.4999 10.2256 18.4999 9.81486V1.21605C18.4999 0.805244 18.1676 0.4729 17.7568 0.4729H9.15797C8.74723 0.4729 8.41481 0.805244 8.41481 1.21605C8.41481 1.62679 8.74723 1.9592 9.15797 1.9592H16.0361L5.80329 12.192C5.53314 12.4621 5.53314 12.9001 5.80257 13.1695C5.93764 13.3046 6.11471 13.3725 6.2917 13.3725Z" fill="#1B2638"/>
<path d="M39.9964 24.8502C39.8193 24.8502 39.6423 24.918 39.5079 25.0524L29.2745 35.2859L29.2745 28.4078C29.2745 27.9971 28.942 27.6646 28.5313 27.6646C28.1205 27.6646 27.7882 27.9971 27.7882 28.4078L27.7882 37.0066C27.7882 37.4174 28.1205 37.7498 28.5313 37.7498L37.1301 37.7498C37.5409 37.7498 37.8733 37.4174 37.8733 37.0066C37.8733 36.5959 37.5409 36.2635 37.1301 36.2635L30.252 36.2635L40.4848 26.0307C40.7549 25.7606 40.7549 25.3225 40.4855 25.0531C40.3504 24.918 40.1734 24.8502 39.9964 24.8502Z" fill="#1B2638"/>
</svg>
