<svg width="32" height="32" viewBox="0 0 32 32" fill="none" xmlns="http://www.w3.org/2000/svg">
<g clip-path="url(#clip0)">
<path d="M19.2009 0H12.8001C6.62351 0 1.59863 5.02488 1.59863 11.2014V16.0021C1.59863 20.3384 4.09951 24.2736 7.99945 26.1246V31.4707C7.99945 31.9349 8.58013 32.1776 8.91001 31.8479L13.5543 27.2035H19.2008C25.3773 27.2035 30.4023 22.1786 30.4023 16.0021V11.2014C30.4023 5.02488 25.3773 0 19.2009 0Z" fill="#665CAC"/>
<path d="M24.0535 19.8813L23.5739 17.2834C23.5343 17.0688 23.368 16.9 23.154 16.8572L19.3823 16.1029C19.2071 16.068 19.0266 16.1227 18.9004 16.2487L17.3681 17.7811C14.7864 16.6243 13.3535 15.1883 12.0928 12.4957L13.6201 10.9684C13.7462 10.8423 13.8009 10.6614 13.766 10.4865L13.0117 6.7148C12.9689 6.50086 12.8001 6.33448 12.5854 6.29486L9.98757 5.81536C9.91645 5.8023 9.8432 5.80367 9.77257 5.81973C9.08664 5.97555 8.46076 6.32117 7.96257 6.81948C7.09995 7.68211 6.77026 8.94086 7.00926 10.4597C7.41045 13.01 8.65995 16.5593 10.9653 18.8739L10.9968 18.9051C13.3095 21.2088 16.8588 22.4584 19.4093 22.8597C19.7306 22.9103 20.0401 22.9354 20.3368 22.9354C21.4428 22.9354 22.3693 22.5865 23.0496 21.9063C23.5478 21.408 23.8936 20.7822 24.0493 20.0964C24.0651 20.0257 24.0666 19.9525 24.0535 19.8813Z" fill="white"/>
<path d="M13.0977 11.4901L13.6192 10.9685L13.6198 10.968L13.0977 11.49L13.0977 11.4901Z" fill="#E5E5E5"/>
<path d="M18.8997 16.2483L18.373 16.7749L18.3731 16.775L18.8997 16.2484L18.8997 16.2483Z" fill="#E5E5E5"/>
<path d="M21.3417 21.9295C21.045 21.9295 20.7355 21.9044 20.4142 21.8538C17.8638 21.4526 14.3145 20.2029 12.0017 17.8993L11.9702 17.868C9.66485 15.5534 8.41535 12.0042 8.01416 9.45382C7.8211 8.22676 7.9996 7.16957 8.53016 6.35376C8.32697 6.48932 8.13628 6.64482 7.9616 6.81951C7.09897 7.68214 6.76928 8.94089 7.00828 10.4597C7.40947 13.0101 8.65897 16.5593 10.9643 18.8739L10.9958 18.9051C13.3085 21.2088 16.8578 22.4584 19.4083 22.8597C19.7297 22.9103 20.0391 22.9354 20.3358 22.9354C21.4418 22.9354 22.3684 22.5866 23.0487 21.9063C23.2233 21.7316 23.3788 21.541 23.5143 21.3378C22.912 21.7296 22.1783 21.9295 21.3417 21.9295Z" fill="#E5E5E5"/>
<path d="M17.0666 9.06787C16.772 9.06787 16.5332 9.30668 16.5332 9.60125C16.5332 9.89581 16.772 10.1346 17.0666 10.1346C18.2431 10.1346 19.2002 11.0917 19.2002 12.2682C19.2002 12.5589 19.443 12.8016 19.7336 12.8016C20.0242 12.8016 20.267 12.5589 20.267 12.2682C20.267 10.5035 18.8313 9.06787 17.0666 9.06787Z" fill="white"/>
<path d="M17.0669 6.93417C16.8696 6.93417 16.6705 6.94511 16.475 6.96667C16.1821 6.99899 15.971 7.26255 16.0033 7.55542C16.0356 7.8483 16.2997 8.05892 16.592 8.02711C16.7488 8.0098 16.9085 8.00099 17.0669 8.00099C19.4198 8.00099 21.3341 9.91524 21.3341 12.2682C21.3341 12.4266 21.3253 12.5864 21.3079 12.7431C21.2761 13.0319 21.4907 13.3 21.7796 13.3319C22.0685 13.3637 22.3364 13.1491 22.3684 12.8602C22.3899 12.6647 22.4009 12.4655 22.4009 12.2682C22.4009 9.32705 20.0081 6.93417 17.0669 6.93417Z" fill="white"/>
<path d="M17.0669 4.80057C16.8762 4.80057 16.6832 4.80782 16.4932 4.82226C16.1994 4.84451 15.9793 5.10076 16.0015 5.39444C16.0237 5.68819 16.2809 5.90832 16.5737 5.88607C16.737 5.87363 16.903 5.86738 17.0669 5.86738C20.5963 5.86738 23.4677 8.73876 23.4677 12.2682C23.4677 12.7676 23.41 13.2647 23.2964 13.7457C23.2312 14.0213 23.401 14.3078 23.6743 14.3827C23.9619 14.4614 24.2661 14.2811 24.3346 13.9911C24.4672 13.4298 24.5345 12.8501 24.5345 12.2682C24.5345 8.15051 21.1845 4.80057 17.0669 4.80057Z" fill="white"/>
</g>
<defs>
<clipPath id="clip0">
<rect width="32" height="32" fill="white"/>
</clipPath>
</defs>
</svg>
