<svg width="30" height="30" viewBox="0 0 30 30" fill="none" xmlns="http://www.w3.org/2000/svg">
<g clip-path="url(#clip0)">
<path d="M14.2724 0.0173188C6.34946 0.394565 0.0971275 6.99287 0.121163 14.9248C0.128481 17.3407 0.711714 19.6209 1.74057 21.6357L0.160911 29.3036C0.0754599 29.7183 0.44955 30.0815 0.861593 29.984L8.37517 28.2038C10.3055 29.1654 12.4737 29.7208 14.7684 29.7558C22.8664 29.8795 29.6188 23.4494 29.8712 15.3544C30.1418 6.67711 22.9801 -0.39738 14.2724 0.0173188ZM23.2377 23.1167C21.0373 25.3171 18.1117 26.5289 14.9999 26.5289C13.1778 26.5289 11.4333 26.1201 9.81478 25.3139L8.76842 24.7926L4.16182 25.884L5.13148 21.1769L4.61598 20.1674C3.77575 18.5219 3.34971 16.7425 3.34971 14.8787C3.34971 11.7668 4.56152 8.84129 6.76194 6.6408C8.94269 4.46005 11.916 3.22851 15.0001 3.22851C18.1119 3.22858 21.0374 4.44039 23.2378 6.64073C25.4382 8.84114 26.65 11.7667 26.6501 14.8785C26.65 17.9626 25.4185 20.936 23.2377 23.1167Z" fill="#7AD06D"/>
<path d="M22.2205 18.1054L19.3385 17.2779C18.9596 17.1691 18.5516 17.2766 18.2755 17.5579L17.5708 18.276C17.2736 18.5787 16.8226 18.676 16.4293 18.5169C15.066 17.9652 12.1981 15.4153 11.4657 14.1398C11.2544 13.7719 11.2894 13.3119 11.5488 12.9762L12.1641 12.1802C12.4052 11.8683 12.456 11.4494 12.2966 11.0889L11.0841 8.34651C10.7937 7.68966 9.95429 7.49846 9.40592 7.96223C8.60157 8.64254 7.64718 9.67634 7.53117 10.8216C7.32662 12.8409 8.19261 15.3863 11.4674 18.4428C15.2506 21.9738 18.2802 22.4403 20.2527 21.9625C21.3716 21.6915 22.2657 20.6051 22.83 19.7156C23.2147 19.1091 22.9109 18.3037 22.2205 18.1054Z" fill="#7AD06D"/>
</g>
<defs>
<clipPath id="clip0">
<rect width="30" height="30" fill="white"/>
</clipPath>
</defs>
</svg>
