<svg width="45" height="44" viewBox="0 0 45 44" fill="none" xmlns="http://www.w3.org/2000/svg">
<path d="M43.7877 43.7548H1.76983C1.34188 43.7548 0.995117 43.408 0.995117 42.9801V0.962217C0.995117 0.534263 1.34188 0.1875 1.76983 0.1875H43.7877C44.2156 0.1875 44.5624 0.534263 44.5624 0.962217V42.9801C44.5624 43.408 44.2156 43.7548 43.7877 43.7548ZM33.5698 42.2054H43.013V32.7622L34.2537 41.5214C34.2525 41.5227 34.2512 41.5242 34.2497 41.5255C34.2484 41.5267 34.2469 41.5283 34.2457 41.5295L33.5698 42.2054ZM21.5102 42.2054H31.3789L32.6067 40.9776L27.6723 36.0433L21.5102 42.2054ZM10.2511 42.2054H19.319L32.7873 28.7371L28.2534 24.2031L13.9524 38.5041L10.2511 42.2054ZM2.54455 42.2054H8.05992L12.3091 37.9562L7.5486 33.1957L2.54455 38.1998V42.2054ZM28.7678 34.9475L33.7021 39.8818L43.013 30.571V20.7026L34.4307 29.2849L28.7678 34.9475ZM8.64436 32.0999L13.4045 36.8604L37.1645 13.1005L32.404 8.34L23.0891 17.6552C23.0882 17.6558 23.0876 17.6564 23.0869 17.6571L8.64436 32.0999ZM2.54455 25.601V36.0082L6.99267 31.5598C6.99545 31.5573 6.99793 31.5545 7.00041 31.5521C7.00289 31.5493 7.00568 31.5468 7.00816 31.5443L21.4433 17.1089L16.3485 12.014L2.54455 25.601ZM29.3488 23.1073L33.8828 27.6413L42.9904 18.534C42.9978 18.5266 43.0055 18.5192 43.013 18.512V9.4432L29.3488 23.1073ZM2.54455 12.9573V23.4268L8.67969 17.3881L3.42246 12.1305L2.54455 12.9573ZM4.55076 11.0676L9.78413 16.301L24.5285 1.78837H14.4024L4.55076 11.0676ZM17.4526 10.9269L22.5391 16.0134L36.8159 1.73693H26.7895L17.4526 10.9269ZM33.4994 7.24455L38.2599 12.005L43.013 7.25199V1.73693H39.0071L33.4994 7.24455ZM2.54455 1.73693V10.829L2.8343 10.5563C2.85072 10.5365 2.86776 10.5176 2.88636 10.499C2.91611 10.4692 2.94771 10.4423 2.98087 10.4184L12.1969 1.73693H2.54455Z" fill="#1B2638"/>
</svg>
